<?xml version="1.0" standalone="no"?>
<svg xmlns="http://www.w3.org/2000/svg" viewBox="0 0 182.664 36" width="182.664" height="36"><g fill="#ff2828" color="#ff2828" transform="translate(0 4) scale(0.2916667)"><svg width="96.0" height="96.0" x="0.0" y="0.0" viewBox="0 0 96 96"><title></title><g><path d="M58.334,28.0337A12.819,12.819,0,0,1,59,32a2,2,0,0,1-4,0c0-4.4121-3.1406-8-7-8s-7,3.5879-7,8a2,2,0,0,1-4,0,12.819,12.819,0,0,1,.666-3.9663,5.9588,5.9588,0,0,0-2.6582,11.1284A2.0007,2.0007,0,0,1,36,40.8906V48H60V40.8906a2.0007,2.0007,0,0,1,.9922-1.7285A5.9588,5.9588,0,0,0,58.334,28.0337Z"></path><rect x="36" y="52" width="24" height="4"></rect><path d="M82,8H20a8.0091,8.0091,0,0,0-8,8V74.05A9.9055,9.9055,0,0,1,18,72H84V10A1.9988,1.9988,0,0,0,82,8ZM64,41.959V58a1.9988,1.9988,0,0,1-2,2H34a1.9988,1.9988,0,0,1-2-2V41.959A9.9727,9.9727,0,0,1,38,24a9.8947,9.8947,0,0,1,1.6992.2134,10.2834,10.2834,0,0,1,16.6016,0A9.8947,9.8947,0,0,1,58,24a9.9727,9.9727,0,0,1,6,17.959Z"></path><path d="M12,82a6,6,0,0,0,6,6H84V76H18A6,6,0,0,0,12,82Z"></path></g></svg></g><path fill="#646464" fill-rule="nonzero" d="M12.72 16.08Q11.45 16.08 10.50 15.32Q9.55 14.57 8.40 12.60L8.40 12.60L6 8.52L4.32 8.52L4.32 15.84L2.16 15.84L2.16 2.88Q2.16 1.66 1.82 1.07Q1.49 0.48 0.48 0.48L0.48 0.48L0 0.48L0 0L6.24 0Q8.52 0 10.38 0.90Q12.24 1.80 12.24 4.32L12.24 4.32Q12.24 7.51 8.40 8.40L8.40 8.40L10.92 12.60Q11.81 14.09 12.52 14.68Q13.22 15.26 14.16 15.36L14.16 15.36L14.16 15.84Q13.94 15.94 13.55 16.01Q13.15 16.08 12.72 16.08L12.72 16.08ZM6.12 7.68Q6.86 7.68 7.74 7.32Q8.62 6.96 9.23 6.19Q9.84 5.42 9.84 4.32L9.84 4.32Q9.84 3.14 9.23 2.36Q8.62 1.58 7.74 1.21Q6.86 0.84 6.12 0.84L6.12 0.84Q5.28 0.84 4.32 1.08L4.32 1.08L4.32 7.44Q5.28 7.68 6.12 7.68L6.12 7.68ZM19.85 16.08Q18.22 16.08 17.09 15.30Q15.96 14.52 15.38 13.19Q14.81 11.86 14.81 10.20L14.81 10.20Q14.81 8.57 15.38 7.22Q15.96 5.88 17.05 5.10Q18.14 4.32 19.61 4.32L19.61 4.32Q22.03 4.32 23.22 5.68Q24.41 7.03 24.41 9.60L24.41 9.60L24.36 10.56L17.09 10.56Q17.09 12.58 17.95 13.85Q18.82 15.12 20.33 15.12L20.33 15.12Q21.46 15.12 22.24 14.64Q23.02 14.16 23.69 13.20L23.69 13.20L24.17 13.56Q23.38 14.88 22.32 15.48Q21.26 16.08 19.85 16.08L19.85 16.08ZM17.09 9.60L22.13 9.60Q22.13 7.49 21.50 6.38Q20.88 5.28 19.61 5.28L19.61 5.28Q18.89 5.28 18.31 5.84Q17.74 6.41 17.41 7.39Q17.09 8.38 17.09 9.60L17.09 9.60ZM26.50 15.84L26.50 15.38L32.74 5.52L29.98 5.52Q28.49 5.52 27.73 6.08Q26.98 6.65 26.98 7.68L26.98 7.68L26.50 7.68L26.50 6.48Q26.50 4.56 28.54 4.56L28.54 4.56L35.86 4.56L29.38 14.88L35.86 14.88L35.86 15.84L26.50 15.84ZM42.55 16.08Q40.92 16.08 39.79 15.30Q38.66 14.52 38.09 13.19Q37.51 11.86 37.51 10.20L37.51 10.20Q37.51 8.57 38.09 7.22Q38.66 5.88 39.76 5.10Q40.85 4.32 42.31 4.32L42.31 4.32Q44.74 4.32 45.92 5.68Q47.11 7.03 47.11 9.60L47.11 9.60L47.06 10.56L39.79 10.56Q39.79 12.58 40.66 13.85Q41.52 15.12 43.03 15.12L43.03 15.12Q44.16 15.12 44.94 14.64Q45.72 14.16 46.39 13.20L46.39 13.20L46.87 13.56Q46.08 14.88 45.02 15.48Q43.97 16.08 42.55 16.08L42.55 16.08ZM39.79 9.60L44.83 9.60Q44.83 7.49 44.21 6.38Q43.58 5.28 42.31 5.28L42.31 5.28Q41.59 5.28 41.02 5.84Q40.44 6.41 40.12 7.39Q39.79 8.38 39.79 9.60L39.79 9.60ZM50.23 20.40L50.23 7.44Q50.23 6.22 49.90 5.63Q49.56 5.04 48.55 5.04L48.55 5.04L48.07 5.04L48.07 4.56L50.23 4.56Q51.14 4.56 51.61 4.81Q52.08 5.06 52.27 5.64L52.27 5.64L52.39 5.64Q52.82 5.09 53.62 4.70Q54.41 4.32 55.63 4.32L55.63 4.32Q57.70 4.32 58.82 5.99Q59.95 7.66 59.95 10.20L59.95 10.20Q59.95 12.77 58.79 14.42Q57.62 16.08 55.39 16.08L55.39 16.08Q54.48 16.08 53.78 15.89Q53.09 15.70 52.39 15.36L52.39 15.36L52.39 20.40L50.23 20.40ZM54.67 15.12Q56.21 15.12 56.94 13.78Q57.67 12.43 57.67 10.20L57.67 10.20Q57.67 7.99 56.98 6.64Q56.28 5.28 54.91 5.28L54.91 5.28Q53.30 5.28 52.39 6.72L52.39 6.72L52.39 14.40Q53.11 14.74 53.64 14.93Q54.17 15.12 54.67 15.12L54.67 15.12ZM66.12 16.08Q64.78 16.08 64.01 15.31Q63.24 14.54 63.24 12.96L63.24 12.96L63.24 5.52L61.56 5.52L61.56 4.56L63.24 4.56L63.24 2.40L64.44 0.96L65.40 0.96L65.40 4.56L68.28 4.56L68.28 5.52L65.40 5.52L65.40 12.96Q65.40 15.12 67.08 15.12L67.08 15.12Q67.66 15.12 68.05 15Q68.45 14.88 68.88 14.64L68.88 14.64L69.12 15.12Q68.57 15.53 67.90 15.80Q67.22 16.08 66.12 16.08L66.12 16.08ZM89.35 16.92Q87.62 16.92 86.66 16.39Q85.70 15.86 85.31 14.75Q84.91 13.63 84.91 11.76L84.91 11.76L84.91 2.52L78.91 15.84L78.43 15.84L72.19 2.28L72.19 15.84L71.23 15.84L71.23 0L73.51 0L79.27 12.48L84.91 0L87.07 0L87.07 11.76Q87.07 13.99 87.64 15.22Q88.20 16.44 89.35 16.44L89.35 16.44L89.35 16.92ZM95.40 16.08Q93.77 16.08 92.64 15.30Q91.51 14.52 90.94 13.19Q90.36 11.86 90.36 10.20L90.36 10.20Q90.36 8.57 90.94 7.22Q91.51 5.88 92.60 5.10Q93.70 4.32 95.16 4.32L95.16 4.32Q97.58 4.32 98.77 5.68Q99.96 7.03 99.96 9.60L99.96 9.60L99.91 10.56L92.64 10.56Q92.64 12.58 93.50 13.85Q94.37 15.12 95.88 15.12L95.88 15.12Q97.01 15.12 97.79 14.64Q98.57 14.16 99.24 13.20L99.24 13.20L99.72 13.56Q98.93 14.88 97.87 15.48Q96.82 16.08 95.40 16.08L95.40 16.08ZM92.64 9.60L97.68 9.60Q97.68 7.49 97.06 6.38Q96.43 5.28 95.16 5.28L95.16 5.28Q94.44 5.28 93.86 5.84Q93.29 6.41 92.96 7.39Q92.64 8.38 92.64 9.60L92.64 9.60ZM103.99 3.12Q103.44 3.12 103.04 2.66Q102.65 2.21 102.65 1.58L102.65 1.58Q102.65 1.08 102.95 0.79Q103.25 0.50 103.75 0.50L103.75 0.50Q104.30 0.50 104.70 0.96Q105.10 1.42 105.10 2.04L105.10 2.04Q105.10 2.54 104.80 2.83Q104.50 3.12 103.99 3.12L103.99 3.12ZM103.08 15.84L103.08 7.44Q103.08 6.22 102.74 5.63Q102.41 5.04 101.40 5.04L101.40 5.04L100.92 5.04L100.92 4.56L103.08 4.56Q103.97 4.56 104.41 4.79Q104.86 5.02 105.05 5.62Q105.24 6.22 105.24 7.44L105.24 7.44L105.24 15.84L103.08 15.84ZM112.39 16.08Q109.63 16.08 108.67 15.12L108.67 15.12Q108.26 14.71 108.17 14.20Q108.07 13.68 108.07 12.60L108.07 12.60L108.55 12.60Q108.77 13.80 109.60 14.46Q110.42 15.12 111.91 15.12L111.91 15.12Q113.23 15.12 113.89 14.66Q114.55 14.21 114.55 13.44L114.55 13.44Q114.55 12.74 114.04 12.24Q113.52 11.74 112.39 11.28L112.39 11.28L110.95 10.68Q109.51 10.10 108.79 9.34Q108.07 8.57 108.07 7.44L108.07 7.44Q108.07 5.98 109.18 5.15Q110.28 4.32 112.03 4.32L112.03 4.32Q114.67 4.32 115.63 5.28L115.63 5.28Q116.04 5.69 116.14 6.19Q116.23 6.70 116.23 7.80L116.23 7.80L115.75 7.80Q115.56 6.60 114.74 5.94Q113.93 5.28 112.51 5.28L112.51 5.28Q111.38 5.28 110.75 5.75Q110.11 6.22 110.11 6.96L110.11 6.96Q110.11 8.21 112.03 9L112.03 9L113.47 9.60Q115.10 10.27 115.85 11.03Q116.59 11.78 116.59 12.96L116.59 12.96Q116.59 14.42 115.42 15.25Q114.24 16.08 112.39 16.08L112.39 16.08ZM122.66 16.08Q121.32 16.08 120.55 15.31Q119.78 14.54 119.78 12.96L119.78 12.96L119.78 5.52L118.10 5.52L118.10 4.56L119.78 4.56L119.78 2.40L120.98 0.96L121.94 0.96L121.94 4.56L124.82 4.56L124.82 5.52L121.94 5.52L121.94 12.96Q121.94 15.12 123.62 15.12L123.62 15.12Q124.20 15.12 124.60 15Q124.99 14.88 125.42 14.64L125.42 14.64L125.66 15.12Q125.11 15.53 124.44 15.80Q123.77 16.08 122.66 16.08L122.66 16.08ZM131.83 16.08Q130.20 16.08 129.07 15.30Q127.94 14.52 127.37 13.19Q126.79 11.86 126.79 10.20L126.79 10.20Q126.79 8.57 127.37 7.22Q127.94 5.88 129.04 5.10Q130.13 4.32 131.59 4.32L131.59 4.32Q134.02 4.32 135.20 5.68Q136.39 7.03 136.39 9.60L136.39 9.60L136.34 10.56L129.07 10.56Q129.07 12.58 129.94 13.85Q130.80 15.12 132.31 15.12L132.31 15.12Q133.44 15.12 134.22 14.64Q135 14.16 135.67 13.20L135.67 13.20L136.15 13.56Q135.36 14.88 134.30 15.48Q133.25 16.08 131.83 16.08L131.83 16.08ZM129.07 9.60L134.11 9.60Q134.11 7.49 133.49 6.38Q132.86 5.28 131.59 5.28L131.59 5.28Q130.87 5.28 130.30 5.84Q129.72 6.41 129.40 7.39Q129.07 8.38 129.07 9.60L129.07 9.60ZM139.34 15.84L139.34 7.44Q139.34 6.22 139.01 5.63Q138.67 5.04 137.66 5.04L137.66 5.04L137.42 5.04L137.42 4.56L139.34 4.56Q140.26 4.56 140.72 4.81Q141.19 5.06 141.38 5.64L141.38 5.64L141.50 5.64Q141.94 5.09 142.67 4.70Q143.40 4.32 144.38 4.32L144.38 4.32Q145.34 4.32 145.82 4.68L145.82 4.68Q146.23 4.99 146.66 5.76L146.66 5.76L145.70 6.48Q145.44 6.12 144.94 5.94Q144.43 5.76 143.78 5.76L143.78 5.76Q143.06 5.76 142.46 6.08Q141.86 6.41 141.50 6.96L141.50 6.96L141.50 15.84L139.34 15.84Z" transform="translate(36, 10.08)"></path></svg>